<?xml version="1.0" encoding="UTF-8" standalone="no"?>
<!-- Created with Inkscape (http://www.inkscape.org/) -->

<svg
   width="20.952999"
   height="34.968788"
   viewBox="0 0 5.5438144 9.2521584"
   version="1.1"
   id="svg5"
   inkscape:version="1.2.2 (732a01da63, 2022-12-09)"
   sodipodi:docname="marker.svg"
   xmlns:inkscape="http://www.inkscape.org/namespaces/inkscape"
   xmlns:sodipodi="http://sodipodi.sourceforge.net/DTD/sodipodi-0.dtd"
   xmlns="http://www.w3.org/2000/svg"
   xmlns:svg="http://www.w3.org/2000/svg"
   xmlns:rdf="http://www.w3.org/1999/02/22-rdf-syntax-ns#"
   xmlns:cc="http://creativecommons.org/ns#"
   xmlns:dc="http://purl.org/dc/elements/1.1/">
  <sodipodi:namedview
     id="namedview7"
     pagecolor="#ffffff"
     bordercolor="#666666"
     borderopacity="1.0"
     inkscape:pageshadow="2"
     inkscape:pageopacity="0"
     inkscape:pagecheckerboard="0"
     inkscape:document-units="mm"
     showgrid="false"
     inkscape:zoom="11.313709"
     inkscape:cx="-33.013046"
     inkscape:cy="20.638678"
     inkscape:window-width="1920"
     inkscape:window-height="1001"
     inkscape:window-x="-9"
     inkscape:window-y="-9"
     inkscape:window-maximized="1"
     inkscape:current-layer="layer1"
     inkscape:showpageshadow="2"
     inkscape:deskcolor="#d1d1d1"
     showguides="true" />
  <defs
     id="defs2" />
  <g
     inkscape:label="Слой 1"
     inkscape:groupmode="layer"
     id="layer1"
     transform="translate(-64.47304,-57.154551)">
    <path
       style="fill:#ffbe1d;fill-opacity:1;stroke-width:0.346572"
       id="path966-4"
       sodipodi:type="arc"
       sodipodi:cx="67.24501"
       sodipodi:cy="59.926514"
       sodipodi:rx="2.7719707"
       sodipodi:ry="2.7719629"
       sodipodi:start="0"
       sodipodi:end="6.2829235"
       sodipodi:arc-type="slice"
       d="m 70.016981,59.926514 a 2.7719707,2.7719629 0 0 1 -2.771789,2.771963 2.7719707,2.7719629 0 0 1 -2.772152,-2.7716 2.7719707,2.7719629 0 0 1 2.771426,-2.772326 2.7719707,2.7719629 0 0 1 2.772515,2.771237 l -2.771971,7.26e-4 z" />
    <path
       sodipodi:type="star"
       style="fill:#ffbe1d;fill-opacity:1;stroke-width:2.965"
       id="path368"
       inkscape:flatsided="true"
       sodipodi:sides="3"
       sodipodi:cx="33.853306"
       sodipodi:cy="74.980881"
       sodipodi:r1="30.372499"
       sodipodi:r2="15.18625"
       sodipodi:arg1="-2.6179939"
       sodipodi:arg2="-1.5707963"
       inkscape:rounded="0"
       inkscape:randomized="0"
       d="m 7.5499494,59.794632 52.6067126,-2e-6 -26.303356,45.55875 z"
       inkscape:transform-center-y="0.87158081"
       transform="matrix(0.09381333,0,0,0.11478544,64.065186,54.313675)" />
    <path
       style="fill:#ffcf59;fill-opacity:1;stroke-width:0.194112"
       id="path966-4-4"
       sodipodi:type="arc"
       sodipodi:cx="67.502495"
       sodipodi:cy="59.345341"
       sodipodi:rx="1.5525507"
       sodipodi:ry="1.5525466"
       sodipodi:start="0"
       sodipodi:end="6.2829235"
       sodipodi:arc-type="slice"
       d="m 69.055045,59.345341 a 1.5525507,1.5525466 0 0 1 -1.552449,1.552546 1.5525507,1.5525466 0 0 1 -1.552652,-1.552343 1.5525507,1.5525466 0 0 1 1.552246,-1.55275 1.5525507,1.5525466 0 0 1 1.552855,1.55214 l -1.55255,4.07e-4 z" />
    <path
       style="fill:#ffffff;fill-opacity:1;stroke-width:0.0699868"
       id="path966-4-4-7"
       sodipodi:type="arc"
       sodipodi:cx="68.052094"
       sodipodi:cy="58.88768"
       sodipodi:rx="0.55977088"
       sodipodi:ry="0.55976933"
       sodipodi:start="0"
       sodipodi:end="6.2829235"
       sodipodi:arc-type="slice"
       d="m 68.611864,58.88768 a 0.55977088,0.55976933 0 0 1 -0.559734,0.559769 0.55977088,0.55976933 0 0 1 -0.559807,-0.559696 0.55977088,0.55976933 0 0 1 0.559661,-0.559842 0.55977088,0.55976933 0 0 1 0.55988,0.559623 l -0.55977,1.46e-4 z" />
  </g>
  <metadata
     id="metadata237">
    <rdf:RDF>
      <cc:Work
         rdf:about="">
        <dc:creator>
          <cc:Agent>
            <dc:title>Поляков Константин</dc:title>
          </cc:Agent>
        </dc:creator>
      </cc:Work>
    </rdf:RDF>
  </metadata>
</svg>
