<?xml version="1.0" standalone="no"?>
<!DOCTYPE svg PUBLIC "-//W3C//DTD SVG 20010904//EN"
 "http://www.w3.org/TR/2001/REC-SVG-20010904/DTD/svg10.dtd">
<svg version="1.0" xmlns="http://www.w3.org/2000/svg"
 width="700.000000pt" height="700.000000pt" viewBox="0 0 700.000000 700.000000"
 preserveAspectRatio="xMidYMid meet">
<metadata>
Created by potrace 1.14, written by Peter Selinger 2001-2017
</metadata>
<g transform="translate(0.000000,700.000000) scale(0.100000,-0.100000)"
fill="#000000" stroke="none">
<path d="M4738 6965 c-2 -1 -41 -5 -88 -9 -127 -10 -138 -12 -305 -55 -159
-41 -430 -194 -552 -311 l-33 -31 0 35 0 36 -207 0 c-442 0 -1591 1 -1853 0
l-275 0 0 -780 c0 -429 -2 -780 -5 -781 -3 0 -18 -2 -35 -4 -16 -2 -50 -7 -75
-10 -218 -29 -495 -154 -685 -308 -230 -188 -412 -470 -484 -754 -52 -203 -61
-424 -26 -618 15 -81 48 -207 64 -240 5 -11 19 -46 31 -77 28 -71 108 -213
163 -287 132 -176 290 -314 482 -420 l40 -22 -1 -877 c0 -482 1 -882 3 -887 2
-7 399 -10 1166 -10 l1162 0 5 53 5 53 45 -62 c200 -277 581 -505 923 -554 20
-3 54 -7 75 -10 51 -8 256 -8 317 0 266 33 530 142 735 303 46 36 199 188 235
232 115 145 244 406 269 547 3 13 7 31 10 41 25 84 39 237 33 377 -14 331
-143 652 -358 893 -21 24 -37 47 -35 50 2 4 310 7 685 6 484 -1 681 2 684 10
1 6 3 529 2 1161 l0 1150 -416 0 -416 0 38 76 c38 75 102 254 113 314 3 17 8
44 11 60 17 93 23 184 20 295 -9 384 -158 727 -430 995 -90 89 -112 107 -210
173 -202 136 -447 221 -680 237 -49 4 -102 8 -117 10 -15 2 -28 2 -30 0z
m-765 -2661 c61 -41 194 -109 273 -141 29 -12 147 -47 151 -45 2 1 21 -5 43
-13 43 -15 42 -15 65 -15 13 0 15 -72 15 -585 l0 -585 -87 -1 c-236 -4 -415
-43 -612 -135 -92 -43 -256 -146 -316 -199 -93 -81 -171 -164 -229 -240 -21
-27 -40 -49 -43 -47 -3 1 -5 133 -4 292 l2 290 -224 0 -224 0 47 94 c51 99
111 271 130 371 54 293 20 603 -97 865 -14 30 -29 65 -33 76 l-9 21 457 1
c251 0 463 1 470 1 8 1 13 12 12 29 -1 15 -2 51 -1 80 l1 52 72 -60 c40 -34
103 -81 141 -106z"/>
</g>
</svg>
